<svg viewBox="0 0 320 88" fill="none" xmlns="http://www.w3.org/2000/svg">
  <rect width="64" height="64" x="12" y="12" rx="18" fill="url(#bg)"/>
  <path d="M30 31.5c0-3.59 2.91-6.5 6.5-6.5h18.8c3.37 0 6.2 2.53 6.57 5.88L64 50.08C64.46 54.24 61.2 58 57.02 58H35.6C32.5 58 30 55.5 30 52.4V31.5Z" fill="white" fill-opacity=".94"/>
  <path d="M35 35h21.8M35 43h16.5M35 51h12.5" stroke="#0F766E" stroke-width="3.2" stroke-linecap="round"/>
  <path d="M53.8 47.2 59 42l5.2 5.2M59 43v15" stroke="#F59E0B" stroke-width="3.5" stroke-linecap="round" stroke-linejoin="round"/>
  <path d="M43.5 28v23" stroke="#0F766E" stroke-width="2.6" stroke-linecap="round" stroke-dasharray="1 6"/>
  <circle cx="59" cy="59" r="6.5" fill="#0F766E"/>
  <path d="M56.2 57.1h5.6M56.2 59h5.6M58.3 57.1c2.6 0 2.6 3.7-.1 3.7h-2" stroke="white" stroke-width="1.6" stroke-linecap="round" stroke-linejoin="round"/>
  <text x="92" y="40" fill="#111827" font-family="Inter, ui-sans-serif, system-ui, sans-serif" font-size="24" font-weight="900">Spending Calculator</text>
  <text x="92" y="62" fill="#6B7280" font-family="Inter, ui-sans-serif, system-ui, sans-serif" font-size="11" font-weight="800" letter-spacing="1.6">CARRY-FORWARD DAILY BUDGETING</text>
  <defs>
    <linearGradient id="bg" x1="22" y1="19" x2="68" y2="71" gradientUnits="userSpaceOnUse">
      <stop stop-color="#0D9488"/>
      <stop offset=".52" stop-color="#10B981"/>
      <stop offset="1" stop-color="#F59E0B"/>
    </linearGradient>
  </defs>
</svg>
